version 1
nodes
0 "Implicit" -1
end
skeleton
time 0
0  0.000000 0.000000 0.000000  0.000000 0.000000 0.000000
end
triangles
no_material
0  -0.916403 -1.830925 -36.934799  -1.000000 0.000000 0.000000  0.990890 0.001953
0  -0.916372 -1.830925 51.882149  -1.000000 0.000000 0.000000  0.990890 0.689460
0  -0.916372 -1.436631 51.882149  -1.000000 0.000000 0.000000  0.987751 0.689460
no_material
0  -0.916403 -1.436631 -36.934799  -1.000000 0.000000 0.000000  0.987751 0.001953
0  -0.916403 -1.830925 -36.934799  -1.000000 0.000000 0.000000  0.990890 0.001953
0  -0.916372 -1.436631 51.882149  -1.000000 0.000000 0.000000  0.987751 0.689460
no_material
0  0.010710 4.426890 -36.934799  1.000000 0.000000 -0.000000  0.701174 0.001953
0  0.010736 4.426890 50.881233  1.000000 0.000000 -0.000000  0.701174 0.681711
0  0.010710 3.926236 -36.934799  1.000000 0.000000 -0.000000  0.697188 0.001953
no_material
0  0.010710 3.926236 -36.934799  1.000000 0.000000 -0.000000  0.697188 0.001953
0  0.010736 4.426890 50.881233  1.000000 0.000000 -0.000000  0.701174 0.681711
0  0.010710 -1.330270 -36.934799  1.000000 0.000000 -0.000000  0.655344 0.001953
no_material
0  0.010710 -1.830925 -36.934799  1.000000 0.000000 -0.000000  0.651358 0.001953
0  0.010710 -1.330270 -36.934799  1.000000 0.000000 -0.000000  0.655344 0.001953
0  0.010736 4.426890 50.881233  1.000000 0.000000 -0.000000  0.701174 0.681711
no_material
0  0.010736 -1.830925 50.881233  1.000000 0.000000 -0.000000  0.651358 0.681711
0  0.010710 -1.830925 -36.934799  1.000000 0.000000 -0.000000  0.651358 0.001953
0  0.010736 4.426890 50.881233  1.000000 0.000000 -0.000000  0.701174 0.681711
no_material
0  -3.777550 -1.436631 54.921684  0.000000 0.000000 1.000000  0.346342 0.807727
0  40.713123 -1.436628 54.921669  0.000000 0.000000 1.000000  0.001953 0.807727
0  40.713123 4.032600 54.921669  0.000000 0.000000 1.000000  0.001953 0.764189
no_material
0  -3.777550 4.032597 54.921684  0.000001 0.000000 1.000000  0.346342 0.764189
0  -3.777550 -1.436631 54.921684  0.000000 0.000000 1.000000  0.346342 0.807727
0  40.713123 4.032600 54.921669  0.000000 0.000000 1.000000  0.001953 0.764189
no_material
0  37.851936 4.426893 51.882133  0.707124 -0.000034 0.707090  0.983732 0.689460
0  37.851936 4.032600 51.882133  0.707090 0.000237 0.707124  0.980594 0.689460
0  37.851913 4.032600 -36.934830  1.000000 0.000000 -0.000000  0.980594 0.001953
no_material
0  37.851913 4.426893 -36.934830  1.000000 0.000000 -0.000000  0.983732 0.001953
0  37.851936 4.426893 51.882133  0.707124 -0.000034 0.707090  0.983732 0.689460
0  37.851913 4.032600 -36.934830  1.000000 0.000000 -0.000000  0.980594 0.001953
no_material
0  40.713123 4.032600 54.921669  1.000000 0.000000 -0.000000  0.705276 0.001953
0  40.713123 -1.436628 54.921669  1.000000 0.000000 -0.000000  0.748814 0.001953
0  40.713089 -1.436628 -36.934830  1.000000 0.000000 -0.000000  0.748814 0.712987
no_material
0  40.713089 4.032600 -36.934830  1.000000 0.000000 -0.000000  0.705276 0.712987
0  40.713123 4.032600 54.921669  1.000000 0.000000 -0.000000  0.705276 0.001953
0  40.713089 -1.436628 -36.934830  1.000000 0.000000 -0.000000  0.748814 0.712987
no_material
0  -3.777550 -1.436631 54.921684  -1.000000 0.000000 0.000000  0.001953 0.760357
0  -3.777550 4.032597 54.921684  -1.000000 0.000000 0.000000  0.001953 0.716819
0  -3.777584 4.032597 -36.934799  -1.000000 0.000000 0.000000  0.712987 0.716819
no_material
0  -3.777584 -1.436631 -36.934799  -1.000000 0.000000 0.000000  0.712987 0.760357
0  -3.777550 -1.436631 54.921684  -1.000000 0.000000 0.000000  0.001953 0.760357
0  -3.777584 4.032597 -36.934799  -1.000000 0.000000 0.000000  0.712987 0.716819
no_material
0  0.010710 4.426890 -36.934799  0.000000 1.000000 0.000000  0.689458 0.830123
0  -0.916403 4.426890 -36.934799  0.000000 1.000000 0.000000  0.689458 0.837503
0  -0.916372 4.426890 51.882149  0.000000 1.000000 -0.000000  0.001953 0.837503
no_material
0  0.010736 4.426890 50.881233  0.000000 1.000000 -0.000000  0.009701 0.830123
0  0.010710 4.426890 -36.934799  0.000000 1.000000 0.000000  0.689458 0.830123
0  -0.916372 4.426890 51.882149  0.000000 1.000000 -0.000000  0.001953 0.837503
no_material
0  36.924828 4.426893 50.881218  0.000000 1.000000 0.000000  0.009701 0.826290
0  37.851936 4.426893 51.882133  0.000000 1.000000 0.000000  0.001953 0.818910
0  37.851913 4.426893 -36.934830  0.000000 1.000000 0.000000  0.689458 0.818910
no_material
0  36.924805 4.426893 -36.934830  0.000000 1.000000 0.000000  0.689458 0.826290
0  36.924828 4.426893 50.881218  0.000000 1.000000 0.000000  0.009701 0.826290
0  37.851913 4.426893 -36.934830  0.000000 1.000000 0.000000  0.689458 0.818910
no_material
0  0.010736 -1.830925 50.881233  0.000000 -1.000000 0.000000  0.303189 0.849083
0  36.924828 -1.830922 50.881218  0.000000 -1.000000 -0.000000  0.009333 0.849083
0  37.851936 -1.830922 51.882133  0.000000 -1.000000 0.000000  0.001953 0.841335
no_material
0  -0.916372 -1.830925 51.882149  0.000000 -1.000000 0.000000  0.310570 0.841335
0  0.010736 -1.830925 50.881233  0.000000 -1.000000 0.000000  0.303189 0.849083
0  37.851936 -1.830922 51.882133  0.000000 -1.000000 0.000000  0.001953 0.841335
no_material
0  -0.916372 4.426890 51.882149  0.000000 0.000000 1.000000  0.977052 0.993387
0  -0.916372 4.032597 51.882149  0.000000 0.000000 1.000000  0.973913 0.993387
0  37.851936 4.032600 51.882133  0.707090 0.000034 0.707123  0.973913 0.693292
no_material
0  37.851936 4.426893 51.882133  0.707124 -0.000237 0.707089  0.977052 0.693292
0  -0.916372 4.426890 51.882149  0.000000 0.000000 1.000000  0.977052 0.993387
0  37.851936 4.032600 51.882133  0.707090 0.000034 0.707123  0.973913 0.693292
no_material
0  0.010736 4.426890 50.881233  -0.000000 1.000000 0.000001  0.969255 0.303189
0  -0.916372 4.426890 51.882149  -0.000000 1.000000 0.000001  0.961507 0.310570
0  37.851936 4.426893 51.882133  -0.000000 1.000000 0.000000  0.961507 0.001953
no_material
0  36.924828 4.426893 50.881218  -0.000000 1.000000 0.000000  0.969255 0.009333
0  0.010736 4.426890 50.881233  -0.000000 1.000000 0.000001  0.969255 0.303189
0  37.851936 4.426893 51.882133  -0.000000 1.000000 0.000000  0.961507 0.001953
no_material
0  36.924828 -1.830922 50.881218  0.000000 -1.000000 0.000000  0.957436 0.009701
0  36.924805 -1.830922 -36.934830  0.000000 -1.000000 0.000000  0.957436 0.689457
0  37.851913 -1.830922 -36.934830  0.000000 -1.000000 0.000000  0.950056 0.689457
no_material
0  37.851936 -1.830922 51.882133  0.000000 -1.000000 0.000000  0.950056 0.001953
0  36.924828 -1.830922 50.881218  0.000000 -1.000000 0.000000  0.957436 0.009701
0  37.851913 -1.830922 -36.934830  0.000000 -1.000000 0.000000  0.950056 0.689457
no_material
0  0.010710 -1.830925 -36.934799  0.000000 -1.000000 0.000000  0.938604 0.689458
0  0.010736 -1.830925 50.881233  0.000000 -1.000000 0.000000  0.938604 0.009701
0  -0.916372 -1.830925 51.882149  0.000000 -1.000000 0.000000  0.945984 0.001953
no_material
0  -0.916403 -1.830925 -36.934799  0.000000 -1.000000 0.000000  0.945984 0.689458
0  0.010710 -1.830925 -36.934799  0.000000 -1.000000 0.000000  0.938604 0.689458
0  -0.916372 -1.830925 51.882149  0.000000 -1.000000 0.000000  0.945984 0.001953
no_material
0  -0.916372 -1.830925 51.882149  0.000000 0.000000 1.000000  0.966756 0.993386
0  37.851936 -1.830922 51.882133  0.000000 0.000000 1.000000  0.966756 0.693292
0  37.851936 -1.436628 51.882133  0.000000 0.000000 1.000000  0.969895 0.693292
no_material
0  -0.916372 -1.436631 51.882149  0.000000 0.000000 1.000000  0.969895 0.993386
0  -0.916372 -1.830925 51.882149  0.000000 0.000000 1.000000  0.966756 0.993386
0  37.851936 -1.436628 51.882133  0.000000 0.000000 1.000000  0.969895 0.693292
no_material
0  37.851936 -1.830922 51.882133  1.000000 0.000000 -0.000000  0.973436 0.689460
0  37.851913 -1.830922 -36.934830  1.000000 0.000000 -0.000000  0.973436 0.001953
0  37.851913 -1.436628 -36.934830  1.000000 0.000000 -0.000000  0.976575 0.001953
no_material
0  37.851936 -1.436628 51.882133  1.000000 0.000000 -0.000000  0.976575 0.689460
0  37.851936 -1.830922 51.882133  1.000000 0.000000 -0.000000  0.973436 0.689460
0  37.851913 -1.436628 -36.934830  1.000000 0.000000 -0.000000  0.976575 0.001953
no_material
0  40.713123 -1.436628 54.921669  0.000000 -1.000000 -0.000000  0.350275 0.791550
0  -3.777550 -1.436631 54.921684  0.000000 -1.000000 0.000000  0.704445 0.791550
0  -0.916372 -1.436631 51.882149  0.000000 -1.000000 0.000000  0.681668 0.815078
no_material
0  37.851936 -1.436628 51.882133  0.000000 -1.000000 -0.000000  0.373051 0.815078
0  40.713123 -1.436628 54.921669  0.000000 -1.000000 -0.000000  0.350275 0.791550
0  -0.916372 -1.436631 51.882149  0.000000 -1.000000 0.000000  0.681668 0.815078
no_material
0  0.010736 4.426890 50.881233  -0.000000 0.000000 -1.000000  0.859874 0.287694
0  36.924828 4.426893 50.881218  -0.000001 0.000000 -1.000000  0.859874 0.001953
0  36.924828 -1.830922 50.881218  -0.000001 0.000000 -1.000000  0.909689 0.001953
no_material
0  0.010736 -1.830925 50.881233  -0.000000 0.000000 -1.000000  0.909689 0.287694
0  0.010736 4.426890 50.881233  -0.000000 0.000000 -1.000000  0.859874 0.287694
0  36.924828 -1.830922 50.881218  -0.000001 0.000000 -1.000000  0.909689 0.001953
no_material
0  -3.777550 -1.436631 54.921684  0.000000 -1.000000 -0.000000  0.855930 0.001953
0  -3.777584 -1.436631 -36.934799  0.000000 -1.000000 0.000000  0.855930 0.712987
0  -0.916403 -1.436631 -36.934799  0.000000 -1.000000 -0.000000  0.833153 0.712987
no_material
0  -0.916372 -1.436631 51.882149  0.000000 -1.000000 -0.000000  0.833153 0.025481
0  -3.777550 -1.436631 54.921684  0.000000 -1.000000 -0.000000  0.855930 0.001953
0  -0.916403 -1.436631 -36.934799  0.000000 -1.000000 -0.000000  0.833153 0.712987
no_material
0  -3.777550 4.032597 54.921684  0.000000 1.000000 0.000000  0.802489 0.712987
0  -0.916372 4.032597 51.882149  0.000000 1.000000 0.000000  0.779712 0.689459
0  -0.916403 4.032597 -36.934799  0.000000 1.000000 0.000000  0.779712 0.001953
no_material
0  -3.777584 4.032597 -36.934799  0.000000 1.000000 0.000000  0.802489 0.001953
0  -3.777550 4.032597 54.921684  0.000000 1.000000 0.000000  0.802489 0.712987
0  -0.916403 4.032597 -36.934799  0.000000 1.000000 0.000000  0.779712 0.001953
no_material
0  40.713089 -1.436628 -36.934830  0.000000 -1.000000 0.000000  0.806433 0.712987
0  40.713123 -1.436628 54.921669  0.000000 -1.000000 0.000000  0.806433 0.001953
0  37.851936 -1.436628 51.882133  0.000000 -1.000000 0.000000  0.829209 0.025481
no_material
0  37.851913 -1.436628 -36.934830  0.000000 -1.000000 0.000000  0.829209 0.712987
0  40.713089 -1.436628 -36.934830  0.000000 -1.000000 0.000000  0.806433 0.712987
0  37.851936 -1.436628 51.882133  0.000000 -1.000000 0.000000  0.829209 0.025481
no_material
0  40.713123 4.032600 54.921669  -0.000000 1.000000 0.000000  0.350275 0.787718
0  37.851936 4.032600 51.882133  -0.000000 1.000000 0.000000  0.373051 0.764189
0  -0.916372 4.032597 51.882149  -0.000000 1.000000 -0.000000  0.681668 0.764189
no_material
0  -3.777550 4.032597 54.921684  -0.000000 1.000000 -0.000000  0.704445 0.787718
0  40.713123 4.032600 54.921669  -0.000000 1.000000 0.000000  0.350275 0.787718
0  -0.916372 4.032597 51.882149  -0.000000 1.000000 -0.000000  0.681668 0.764189
no_material
0  40.713089 4.032600 -36.934830  0.000000 1.000000 0.000000  0.752992 0.001953
0  37.851913 4.032600 -36.934830  0.000000 1.000000 0.000000  0.775768 0.001953
0  37.851936 4.032600 51.882133  0.000000 1.000000 0.000000  0.775768 0.689459
no_material
0  40.713123 4.032600 54.921669  0.000000 1.000000 0.000000  0.752992 0.712987
0  40.713089 4.032600 -36.934830  0.000000 1.000000 0.000000  0.752992 0.001953
0  37.851936 4.032600 51.882133  0.000000 1.000000 0.000000  0.775768 0.689459
no_material
0  -0.916403 4.426890 -36.934799  -1.000000 0.000000 0.000000  0.994908 0.001953
0  -0.916403 4.032597 -36.934799  -1.000000 0.000000 0.000000  0.998047 0.001953
0  -0.916372 4.032597 51.882149  -1.000000 0.000000 0.000000  0.998047 0.689468
no_material
0  -0.916372 4.426890 51.882149  -1.000000 0.000000 0.000000  0.994908 0.689468
0  -0.916403 4.426890 -36.934799  -1.000000 0.000000 0.000000  0.994908 0.001953
0  -0.916372 4.032597 51.882149  -1.000000 0.000000 0.000000  0.998047 0.689468
no_material
0  36.924805 4.426893 -36.934830  -1.000000 0.000000 0.000000  0.597440 0.001953
0  36.924805 3.926239 -36.934830  -1.000000 0.000000 0.000000  0.601425 0.001953
0  36.924828 4.426893 50.881218  -1.000000 0.000000 0.000000  0.597440 0.681711
no_material
0  36.924805 3.926239 -36.934830  -1.000000 0.000000 0.000000  0.601425 0.001953
0  36.924805 -1.330267 -36.934830  -1.000000 0.000000 0.000000  0.643270 0.001953
0  36.924828 4.426893 50.881218  -1.000000 0.000000 0.000000  0.597440 0.681711
no_material
0  36.924805 -1.830922 -36.934830  -1.000000 0.000000 0.000000  0.647256 0.001953
0  36.924828 4.426893 50.881218  -1.000000 0.000000 0.000000  0.597440 0.681711
0  36.924805 -1.330267 -36.934830  -1.000000 0.000000 0.000000  0.643270 0.001953
no_material
0  36.924828 -1.830922 50.881218  -1.000000 0.000000 0.000000  0.647256 0.681711
0  36.924828 4.426893 50.881218  -1.000000 0.000000 0.000000  0.597440 0.681711
0  36.924805 -1.830922 -36.934830  -1.000000 0.000000 0.000000  0.647256 0.001953
end
