version 1
nodes
0 "Implicit" -1
end
skeleton
time 0
0  0.000000 0.000000 0.000000  0.000000 0.000000 0.000000
end
triangles
no_material
0  -4.204080 -2.943459 -0.062098  -0.577350 -0.577350 -0.577350  0.375000 0.000000
0  -4.204080 2.908441 13.434772  -0.577350 0.577350 0.577350  0.625000 0.250000
0  -4.204080 2.908441 -0.062098  -0.577350 0.577350 -0.577350  0.375000 0.250000
no_material
0  -4.204080 2.908441 -0.062098  -0.577350 0.577350 -0.577350  0.375000 0.250000
0  4.326641 2.908441 13.434772  0.577350 0.577350 0.577350  0.625000 0.500000
0  4.326641 2.908441 -0.062098  0.577350 0.577350 -0.577350  0.375000 0.500000
no_material
0  4.326641 2.908441 -0.062098  0.577350 0.577350 -0.577350  0.375000 0.500000
0  4.326641 -2.943459 13.434772  0.577350 -0.577350 0.577350  0.625000 0.750000
0  4.326641 -2.943459 -0.062098  0.577350 -0.577350 -0.577350  0.375000 0.750000
no_material
0  4.326641 -2.943459 -0.062098  0.577350 -0.577350 -0.577350  0.375000 0.750000
0  -4.204080 -2.943459 13.434772  -0.577350 -0.577350 0.577350  0.625000 1.000000
0  -4.204080 -2.943459 -0.062098  -0.577350 -0.577350 -0.577350  0.375000 1.000000
no_material
0  -4.204080 2.908441 -0.062098  -0.577350 0.577350 -0.577350  0.125000 0.500000
0  4.326641 -2.943459 -0.062098  0.577350 -0.577350 -0.577350  0.375000 0.750000
0  -4.204080 -2.943459 -0.062098  -0.577350 -0.577350 -0.577350  0.125000 0.750000
no_material
0  4.326641 2.908441 13.434772  0.577350 0.577350 0.577350  0.625000 0.500000
0  -4.204080 -2.943459 13.434772  -0.577350 -0.577350 0.577350  0.875000 0.750000
0  4.326641 -2.943459 13.434772  0.577350 -0.577350 0.577350  0.625000 0.750000
no_material
0  -4.204080 -2.943459 -0.062098  -0.577350 -0.577350 -0.577350  0.375000 0.000000
0  -4.204080 -2.943459 13.434772  -0.577350 -0.577350 0.577350  0.625000 0.000000
0  -4.204080 2.908441 13.434772  -0.577350 0.577350 0.577350  0.625000 0.250000
no_material
0  -4.204080 2.908441 -0.062098  -0.577350 0.577350 -0.577350  0.375000 0.250000
0  -4.204080 2.908441 13.434772  -0.577350 0.577350 0.577350  0.625000 0.250000
0  4.326641 2.908441 13.434772  0.577350 0.577350 0.577350  0.625000 0.500000
no_material
0  4.326641 2.908441 -0.062098  0.577350 0.577350 -0.577350  0.375000 0.500000
0  4.326641 2.908441 13.434772  0.577350 0.577350 0.577350  0.625000 0.500000
0  4.326641 -2.943459 13.434772  0.577350 -0.577350 0.577350  0.625000 0.750000
no_material
0  4.326641 -2.943459 -0.062098  0.577350 -0.577350 -0.577350  0.375000 0.750000
0  4.326641 -2.943459 13.434772  0.577350 -0.577350 0.577350  0.625000 0.750000
0  -4.204080 -2.943459 13.434772  -0.577350 -0.577350 0.577350  0.625000 1.000000
no_material
0  -4.204080 2.908441 -0.062098  -0.577350 0.577350 -0.577350  0.125000 0.500000
0  4.326641 2.908441 -0.062098  0.577350 0.577350 -0.577350  0.375000 0.500000
0  4.326641 -2.943459 -0.062098  0.577350 -0.577350 -0.577350  0.375000 0.750000
no_material
0  4.326641 2.908441 13.434772  0.577350 0.577350 0.577350  0.625000 0.500000
0  -4.204080 2.908441 13.434772  -0.577350 0.577350 0.577350  0.875000 0.500000
0  -4.204080 -2.943459 13.434772  -0.577350 -0.577350 0.577350  0.875000 0.750000
end
