version 1
nodes
0 "Implicit" -1
end
skeleton
time 0
0  0.000000 0.000000 0.000000  0.000000 0.000000 0.000000
end
triangles
invisibl
0  2.458280 41.544899 16.470501  0.000000 0.000000 1.000000  0.904217 0.500000
0  -2.458280 -41.544899 16.470501  0.000000 0.000000 1.000000  0.969280 0.565062
0  2.458280 -41.544899 16.470501  0.000000 0.000000 1.000000  0.904217 0.565062
invisibl
0  2.458280 -41.544899 -16.470501  0.000000 -1.000000 0.000000  0.839155 0.565062
0  -2.458280 -41.544899 16.470501  0.000000 -1.000000 0.000000  0.904217 0.630125
0  -2.458280 -41.544899 -16.470501  0.000000 -1.000000 0.000000  0.839155 0.630125
invisibl
0  -2.458280 -41.544899 -16.470501  -1.000000 0.000000 0.000000  0.839155 0.369875
0  -2.458280 41.544899 16.470501  -1.000000 0.000000 0.000000  0.904217 0.434938
0  -2.458280 41.544899 -16.470501  -1.000000 0.000000 0.000000  0.839155 0.434938
invisibl
0  -2.458280 41.544899 -16.470501  0.000000 0.000000 -1.000000  0.774093 0.500000
0  2.458280 -41.544899 -16.470501  0.000000 0.000000 -1.000000  0.839155 0.565062
0  -2.458280 -41.544899 -16.470501  0.000000 0.000000 -1.000000  0.774093 0.565062
msgbox_mat
0  2.458280 41.544899 -16.470501  1.000000 0.000000 0.000000  1.000005 -0.008752
0  2.458280 -41.544899 16.470501  1.000000 0.000000 0.000000  -0.000014 1.008753
0  2.458280 -41.544899 -16.470501  1.000000 0.000000 0.000000  -0.000015 -0.008752
invisibl
0  -2.458280 41.544899 -16.470501  0.000000 1.000000 0.000000  0.839155 0.434938
0  2.458280 41.544899 16.470501  0.000000 1.000000 0.000000  0.904217 0.500000
0  2.458280 41.544899 -16.470501  0.000000 1.000000 0.000000  0.839155 0.500000
invisibl
0  2.458280 41.544899 16.470501  0.000000 0.000000 1.000000  0.904217 0.500000
0  -2.458280 41.544899 16.470501  0.000000 0.000000 1.000000  0.969280 0.500000
0  -2.458280 -41.544899 16.470501  0.000000 0.000000 1.000000  0.969280 0.565062
invisibl
0  2.458280 -41.544899 -16.470501  0.000000 -1.000000 0.000000  0.839155 0.565062
0  2.458280 -41.544899 16.470501  0.000000 -1.000000 0.000000  0.904217 0.565062
0  -2.458280 -41.544899 16.470501  0.000000 -1.000000 0.000000  0.904217 0.630125
invisibl
0  -2.458280 -41.544899 -16.470501  -1.000000 0.000000 0.000000  0.839155 0.369875
0  -2.458280 -41.544899 16.470501  -1.000000 0.000000 0.000000  0.904217 0.369875
0  -2.458280 41.544899 16.470501  -1.000000 0.000000 0.000000  0.904217 0.434938
invisibl
0  -2.458280 41.544899 -16.470501  0.000000 0.000000 -1.000000  0.774093 0.500000
0  2.458280 41.544899 -16.470501  0.000000 0.000000 -1.000000  0.839155 0.500000
0  2.458280 -41.544899 -16.470501  0.000000 0.000000 -1.000000  0.839155 0.565062
msgbox_mat
0  2.458280 41.544899 -16.470501  1.000000 0.000000 0.000000  1.000005 -0.008752
0  2.458280 41.544899 16.470501  1.000000 0.000000 0.000000  1.000005 1.008752
0  2.458280 -41.544899 16.470501  1.000000 0.000000 0.000000  -0.000014 1.008753
invisibl
0  -2.458280 41.544899 -16.470501  0.000000 1.000000 0.000000  0.839155 0.434938
0  -2.458280 41.544899 16.470501  0.000000 1.000000 0.000000  0.904217 0.434938
0  2.458280 41.544899 16.470501  0.000000 1.000000 0.000000  0.904217 0.500000
end
