version 1
nodes
0 "Implicit" -1
end
skeleton
time 0
0  0.000000 0.000000 0.000000  0.000000 0.000000 0.000000
end
triangles
chess_set_pieces_black.003
0  0.093374 0.129329 0.316574  0.495000 0.719631 0.486935  0.673208 0.480863
0  0.056612 0.078707 0.430509  0.563251 0.798787 0.211395  0.969448 0.270489
0  0.117232 0.038291 0.343846  0.811874 0.246723 0.529139  0.984915 0.254349
chess_set_pieces_black.003
0  -0.000588 0.268541 0.003672  -0.263335 0.757051 -0.597937  0.833873 0.167498
0  -0.000568 0.260421 0.092166  0.130031 0.987932 0.084154  0.851186 0.167341
0  0.160112 0.221185 0.057417  0.589007 0.802912 -0.091667  0.843527 0.198858
chess_set_pieces_black.003
0  -0.161382 0.221443 0.057452  -0.587477 0.806513 -0.066392  0.842975 0.135895
0  -0.159662 0.218973 0.136763  -0.539903 0.768142 0.344184  0.517273 0.891890
0  -0.000568 0.260421 0.092166  0.130031 0.987932 0.084154  0.851186 0.167341
chess_set_pieces_black.003
0  0.105615 -0.146084 0.289673  0.457562 -0.624003 0.633449  0.632538 0.514728
0  0.142363 -0.196783 0.216734  0.517096 -0.711684 0.475519  0.565261 0.795953
0  0.170333 -0.055328 0.265225  0.677850 -0.156384 0.718376  0.572658 0.821950
chess_set_pieces_black.003
0  -0.262395 -0.084935 0.057673  -0.944215 -0.310428 -0.109968  0.835884 0.072604
0  -0.259708 -0.084133 0.136730  -0.897670 -0.274416 0.344797  0.483928 0.825174
0  -0.248118 0.080363 0.092249  -0.937759 0.347286 0.000437  0.847340 0.103565
chess_set_pieces_black.003
0  -0.159662 0.218973 0.136763  -0.539903 0.768142 0.344184  0.858898 0.134967
0  -0.259708 -0.084133 0.136730  -0.897670 -0.274416 0.344797  0.483928 0.825174
0  -0.230761 0.074788 0.215651  -0.842200 0.275388 0.463530  0.505617 0.855716
chess_set_pieces_black.003
0  -0.000579 -0.274912 0.057498  -0.001294 -0.992694 -0.120655  0.822002 0.329241
0  -0.000585 -0.275262 0.136595  -0.016092 -0.941373 0.336982  0.535973 0.774377
0  -0.153829 -0.211126 0.092118  -0.623164 -0.781281 -0.035592  0.836620 0.039274
chess_set_pieces_black.003
0  -0.259708 -0.084133 0.136730  -0.897670 -0.274416 0.344797  0.851809 0.070016
0  -0.000585 -0.275262 0.136595  -0.016092 -0.941373 0.336982  0.535973 0.774377
0  -0.143196 -0.196312 0.216195  -0.522517 -0.714679 0.464983  0.514165 0.803509
chess_set_pieces_black.003
0  0.259917 -0.084598 0.057405  0.947298 -0.303545 -0.102407  0.836963 0.262599
0  0.259152 -0.084319 0.136735  0.892467 -0.301527 0.335536  0.600489 0.806890
0  0.152760 -0.211242 0.092068  0.557765 -0.829301 -0.034036  0.837903 0.297352
chess_set_pieces_black.003
0  -0.000585 -0.275262 0.136595  -0.016092 -0.941373 0.336982  0.836636 0.005072
0  0.259152 -0.084319 0.136735  0.892467 -0.301527 0.335536  0.600489 0.806890
0  0.142363 -0.196783 0.216734  0.517096 -0.711684 0.475519  0.565261 0.795953
chess_set_pieces_black.003
0  0.160112 0.221185 0.057417  0.589007 0.802912 -0.091667  0.843527 0.198858
0  0.158271 0.218629 0.136780  0.562492 0.753202 0.341013  0.591251 0.879464
0  0.247228 0.080390 0.092205  0.960843 0.276193 -0.022299  0.848382 0.231074
chess_set_pieces_black.003
0  0.170333 -0.055328 0.265225  0.677850 -0.156384 0.718376  0.572658 0.821950
0  0.259152 -0.084319 0.136735  0.892467 -0.301527 0.335536  0.853456 0.265127
0  0.229944 0.074907 0.215955  0.841331 0.275843 0.464836  0.590032 0.841911
chess_set_pieces_black.003
0  0.259917 -0.084598 0.057405  0.947298 -0.303545 -0.102407  0.836963 0.262599
0  0.160112 0.221185 0.057417  0.589007 0.802912 -0.091667  0.843527 0.198858
0  0.247228 0.080390 0.092205  0.960843 0.276193 -0.022299  0.848382 0.231074
chess_set_pieces_black.003
0  0.158271 0.218629 0.136780  0.562492 0.753202 0.341013  0.859464 0.199444
0  -0.159662 0.218973 0.136763  -0.539903 0.768142 0.344184  0.517273 0.891890
0  -0.000562 0.242029 0.215648  0.004146 0.884869 0.465821  0.553179 0.879999
chess_set_pieces_black.003
0  -0.152801 -0.049444 0.317112  -0.810708 -0.252495 0.528203  0.681234 0.535642
0  -0.171375 -0.055284 0.265363  -0.865389 -0.389927 0.314737  0.515414 0.830574
0  -0.107318 -0.146947 0.289607  -0.462703 -0.621190 0.632479  0.662250 0.545370
chess_set_pieces_black.003
0  -0.172396 0.055808 0.289756  -0.714497 0.238945 0.657571  0.699917 0.526079
0  -0.230761 0.074788 0.215651  -0.842200 0.275388 0.463530  0.505617 0.855716
0  -0.171375 -0.055284 0.265363  -0.865389 -0.389927 0.314737  0.515414 0.830574
chess_set_pieces_black.003
0  -0.171375 -0.055284 0.265363  -0.865389 -0.389927 0.314737  0.515414 0.830574
0  -0.259708 -0.084133 0.136730  -0.897670 -0.274416 0.344797  0.851809 0.070016
0  -0.143196 -0.196312 0.216195  -0.522517 -0.714679 0.464983  0.514165 0.803509
chess_set_pieces_black.003
0  0.151145 0.208034 0.000001  0.337849 0.470894 -0.814933  0.954702 0.601332
0  0.160112 0.221185 0.057417  0.589007 0.802912 -0.091667  0.843527 0.198858
0  0.256612 0.083389 0.003672  0.887877 0.242846 -0.390770  0.831211 0.229335
chess_set_pieces_black.003
0  0.244556 -0.079461 0.000002  0.555455 -0.178075 -0.812255  0.897256 0.611103
0  0.259917 -0.084598 0.057405  0.947298 -0.303545 -0.102407  0.836963 0.262599
0  0.158661 -0.219319 0.003672  0.578894 -0.711038 -0.399133  0.819939 0.293233
chess_set_pieces_black.003
0  0.079281 0.025826 0.595798  0.819818 0.068671 -0.568492  0.935685 0.264219
0  0.155849 0.050803 0.657442  0.905125 0.386511 0.177083  0.850619 0.863262
0  0.148341 -0.048372 0.619585  0.960446 -0.255398 -0.110971  0.253404 0.893250
chess_set_pieces_black.003
0  -0.158914 -0.217987 0.003672  -0.495099 -0.769950 -0.402559  0.819484 0.043226
0  0.158661 -0.219319 0.003672  0.578894 -0.711038 -0.399133  0.819939 0.293233
0  -0.000579 -0.274912 0.057498  -0.001294 -0.992694 -0.120655  0.821384 0.009344
chess_set_pieces_black.003
0  0.091005 0.126048 0.620567  0.603078 0.786916 -0.130615  0.288457 0.898513
0  -0.092168 0.126085 0.620545  -0.533515 0.844324 -0.049785  0.304307 0.866763
0  -0.000576 0.164182 0.657300  -0.082421 0.981252 0.174215  0.813043 0.857352
chess_set_pieces_black.003
0  0.049148 -0.068599 0.595490  0.496648 -0.555644 -0.666784  0.930930 0.245670
0  0.096283 -0.133395 0.657842  0.638264 -0.748459 0.180081  0.868119 0.829325
0  -0.000580 -0.156889 0.619196  0.048260 -0.992764 -0.109953  0.247568 0.858148
chess_set_pieces_black.003
0  -0.258010 0.083532 0.003672  -0.886032 0.239402 -0.397032  0.830198 0.105486
0  -0.158914 -0.217987 0.003672  -0.495099 -0.769950 -0.402559  0.819484 0.043226
0  -0.262395 -0.084935 0.057673  -0.944215 -0.310428 -0.109968  0.835884 0.072604
chess_set_pieces_black.003
0  -0.151144 0.208031 0.000000  -0.335049 0.467968 -0.817770  0.963165 0.543677
0  -0.161382 0.221443 0.057452  -0.587477 0.806513 -0.066392  0.842975 0.135895
0  -0.000588 0.268541 0.003672  -0.263335 0.757051 -0.597937  0.833873 0.167498
chess_set_pieces_black.003
0  0.259152 -0.084319 0.136735  0.892467 -0.301527 0.335536  0.853456 0.265127
0  0.158271 0.218629 0.136780  0.562492 0.753202 0.341013  0.591251 0.879464
0  0.229944 0.074907 0.215955  0.841331 0.275843 0.464836  0.590032 0.841911
chess_set_pieces_black.003
0  0.104306 0.144475 0.264549  0.502966 0.518002 0.691881  0.567719 0.856949
0  0.158271 0.218629 0.136780  0.562492 0.753202 0.341013  0.859464 0.199444
0  -0.000562 0.242029 0.215648  0.004146 0.884869 0.465821  0.553179 0.879999
chess_set_pieces_black.003
0  -0.107318 -0.146947 0.289607  -0.462703 -0.621190 0.632479  0.662250 0.545370
0  -0.143196 -0.196312 0.216195  -0.522517 -0.714679 0.464983  0.514165 0.803509
0  -0.000576 -0.180487 0.265789  -0.058453 -0.949872 0.307128  0.540551 0.805174
chess_set_pieces_black.003
0  0.092704 -0.030257 0.430652  0.928544 -0.289578 0.232273  0.964438 0.246255
0  0.148341 -0.048372 0.619585  0.960446 -0.255398 -0.110971  0.253404 0.893250
0  0.049148 -0.068599 0.595490  0.496648 -0.555644 -0.666784  0.930930 0.245670
chess_set_pieces_black.003
0  -0.161382 0.221443 0.057452  -0.587477 0.806513 -0.066392  0.842975 0.135895
0  -0.262395 -0.084935 0.057673  -0.944215 -0.310428 -0.109968  0.835884 0.072604
0  -0.248118 0.080363 0.092249  -0.937759 0.347286 0.000437  0.847340 0.103565
chess_set_pieces_black.003
0  -0.262395 -0.084935 0.057673  -0.944215 -0.310428 -0.109968  0.835884 0.072604
0  -0.000579 -0.274912 0.057498  -0.001294 -0.992694 -0.120655  0.822002 0.329241
0  -0.153829 -0.211126 0.092118  -0.623164 -0.781281 -0.035592  0.836620 0.039274
chess_set_pieces_black.003
0  -0.000576 -0.180487 0.265789  -0.058453 -0.949872 0.307128  0.540551 0.805174
0  -0.000585 -0.275262 0.136595  -0.016092 -0.941373 0.336982  0.838214 0.333593
0  0.142363 -0.196783 0.216734  0.517096 -0.711684 0.475519  0.565261 0.795953
chess_set_pieces_black.003
0  -0.000581 -0.160364 0.317733  -0.004751 -0.846546 0.532294  0.647307 0.529979
0  -0.000576 -0.180487 0.265789  -0.058453 -0.949872 0.307128  0.540551 0.805174
0  0.105615 -0.146084 0.289673  0.457562 -0.624003 0.633449  0.632538 0.514728
chess_set_pieces_black.003
0  0.171336 0.055817 0.289667  0.739109 0.243450 0.628053  0.652315 0.477277
0  0.229944 0.074907 0.215955  0.841331 0.275843 0.464836  0.590032 0.841911
0  0.104306 0.144475 0.264549  0.502966 0.518002 0.691881  0.567719 0.856949
chess_set_pieces_black.003
0  0.104306 0.144475 0.264549  0.502966 0.518002 0.691881  0.567719 0.856949
0  -0.105374 0.144418 0.264641  -0.510546 0.805937 0.299681  0.532074 0.862662
0  -0.000583 0.180513 0.289639  0.021874 0.765339 0.643256  0.693862 0.484661
chess_set_pieces_black.003
0  0.151416 -0.049358 0.316569  0.803811 -0.266503 0.531849  0.642385 0.495966
0  0.170333 -0.055328 0.265225  0.677850 -0.156384 0.718376  0.572658 0.821950
0  0.171336 0.055817 0.289667  0.739109 0.243450 0.628053  0.652315 0.477277
chess_set_pieces_black.003
0  0.072777 -0.100895 0.344310  0.462401 -0.643103 0.610413  0.975610 0.227646
0  0.105615 -0.146084 0.289673  0.457562 -0.624003 0.633449  0.632538 0.514728
0  0.151416 -0.049358 0.316569  0.803811 -0.266503 0.531849  0.642385 0.495966
chess_set_pieces_black.003
0  0.093374 0.129329 0.316574  0.495000 0.719631 0.486935  0.673208 0.480863
0  0.104306 0.144475 0.264549  0.502966 0.518002 0.691881  0.567719 0.856949
0  -0.000583 0.180513 0.289639  0.021874 0.765339 0.643256  0.693862 0.484661
chess_set_pieces_black.003
0  0.117232 0.038291 0.343846  0.811874 0.246723 0.529139  0.984915 0.254349
0  0.171336 0.055817 0.289667  0.739109 0.243450 0.628053  0.652315 0.477277
0  0.093374 0.129329 0.316574  0.495000 0.719631 0.486935  0.673208 0.480863
chess_set_pieces_black.003
0  -0.094411 0.129193 0.316374  -0.490919 0.692468 0.528664  0.696893 0.505398
0  -0.105374 0.144418 0.264641  -0.510546 0.805937 0.299681  0.532074 0.862662
0  -0.172396 0.055808 0.289756  -0.714497 0.238945 0.657571  0.699917 0.526079
chess_set_pieces_black.003
0  -0.118484 0.038355 0.343880  -0.744028 0.258871 0.615961  0.985610 0.311306
0  -0.172396 0.055808 0.289756  -0.714497 0.238945 0.657571  0.699917 0.526079
0  -0.152801 -0.049444 0.317112  -0.810708 -0.252495 0.528203  0.681234 0.535642
chess_set_pieces_black.003
0  -0.074057 -0.101085 0.344307  -0.475883 -0.632727 0.610895  0.976560 0.339084
0  -0.107318 -0.146947 0.289607  -0.462703 -0.621190 0.632479  0.662250 0.545370
0  -0.000581 -0.160364 0.317733  -0.004751 -0.846546 0.532294  0.647307 0.529979
chess_set_pieces_black.003
0  0.093374 0.129329 0.316574  0.495000 0.719631 0.486935  0.673208 0.480863
0  -0.094411 0.129193 0.316374  -0.490919 0.692468 0.528664  0.696893 0.505398
0  -0.000568 0.123253 0.343550  -0.030758 0.845636 0.532872  0.988195 0.282752
chess_set_pieces_black.003
0  -0.074057 -0.101085 0.344307  -0.475883 -0.632727 0.610895  0.976560 0.339084
0  -0.050582 -0.068878 0.595104  -0.495384 -0.810962 -0.311346  0.267295 0.857643
0  -0.094360 -0.030451 0.430773  -0.929360 -0.304096 0.209322  0.964939 0.320064
chess_set_pieces_black.003
0  0.117232 0.038291 0.343846  0.811874 0.246723 0.529139  0.984915 0.254349
0  0.079281 0.025826 0.595798  0.819818 0.068671 -0.568492  0.272218 0.887211
0  0.092704 -0.030257 0.430652  0.928544 -0.289578 0.232273  0.964438 0.246255
chess_set_pieces_black.003
0  0.056612 0.078707 0.430509  0.563251 0.798787 0.211395  0.969448 0.270489
0  0.091005 0.126048 0.620567  0.603078 0.786916 -0.130615  0.288457 0.898513
0  0.079281 0.025826 0.595798  0.819818 0.068671 -0.568492  0.935685 0.264219
chess_set_pieces_black.003
0  -0.118484 0.038355 0.343880  -0.744028 0.258871 0.615961  0.985610 0.311306
0  -0.080831 0.026063 0.595090  -0.919441 0.226951 -0.321127  0.285620 0.860540
0  -0.057819 0.078868 0.430556  -0.576909 0.789673 0.208788  0.969668 0.295474
chess_set_pieces_black.003
0  0.072777 -0.100895 0.344310  0.462401 -0.643103 0.610413  0.975610 0.227646
0  0.049148 -0.068599 0.595490  0.496648 -0.555644 -0.666784  0.259017 0.874266
0  -0.000584 -0.098944 0.430841  -0.010693 -0.976308 0.216119  0.955507 0.342133
chess_set_pieces_black.003
0  -0.057819 0.078868 0.430556  -0.576909 0.789673 0.208788  0.969668 0.295474
0  0.056612 0.078707 0.430509  0.563251 0.798787 0.211395  0.969448 0.270489
0  -0.000568 0.123253 0.343550  -0.030758 0.845636 0.532872  0.988195 0.282752
chess_set_pieces_black.003
0  -0.080831 0.026063 0.595090  -0.919441 0.226951 -0.321127  0.935841 0.302189
0  -0.156718 0.050704 0.657235  -0.957990 0.226746 0.175618  0.806989 0.819237
0  -0.092168 0.126085 0.620545  -0.533515 0.844324 -0.049785  0.304307 0.866763
chess_set_pieces_black.003
0  -0.105374 0.144418 0.264641  -0.510546 0.805937 0.299681  0.532074 0.862662
0  -0.159662 0.218973 0.136763  -0.539903 0.768142 0.344184  0.858898 0.134967
0  -0.230761 0.074788 0.215651  -0.842200 0.275388 0.463530  0.505617 0.855716
chess_set_pieces_black.003
0  -0.050582 -0.068878 0.595104  -0.495384 -0.810962 -0.311346  0.931066 0.320914
0  -0.097198 -0.133010 0.657417  -0.517139 -0.837217 0.177861  0.841529 0.801927
0  -0.149220 -0.048295 0.619972  -0.967842 -0.246603 -0.049685  0.279102 0.841927
chess_set_pieces_black.003
0  0.091005 0.126048 0.620567  0.603078 0.786916 -0.130615  0.288457 0.898513
0  0.046133 0.064378 0.696376  0.233423 0.793216 0.562426  0.833628 0.848778
0  0.155849 0.050803 0.657442  0.905125 0.386511 0.177083  0.850619 0.863262
chess_set_pieces_black.003
0  0.148341 -0.048372 0.619585  0.960446 -0.255398 -0.110971  0.253404 0.893250
0  0.075966 -0.024808 0.696910  0.829693 0.035427 0.557095  0.849040 0.841088
0  0.096283 -0.133395 0.657842  0.638264 -0.748459 0.180081  0.868119 0.829325
chess_set_pieces_black.003
0  -0.149220 -0.048295 0.619972  -0.967842 -0.246603 -0.049685  0.279102 0.841927
0  -0.076558 -0.024593 0.696678  -0.647232 -0.513834 0.563086  0.829494 0.820939
0  -0.156718 0.050704 0.657235  -0.957990 0.226746 0.175618  0.806989 0.819237
chess_set_pieces_black.003
0  -0.156718 0.050704 0.657235  -0.957990 0.226746 0.175618  0.806989 0.819237
0  -0.075668 0.024330 0.718161  -0.862506 0.468029 -0.192437  0.028549 0.398841
0  -0.047405 0.064467 0.696407  -0.239243 0.792373 0.561166  0.821542 0.836558
chess_set_pieces_black.003
0  -0.092168 0.126085 0.620545  -0.533515 0.844324 -0.049785  0.304307 0.866763
0  -0.047405 0.064467 0.696407  -0.239243 0.792373 0.561166  0.821542 0.836558
0  -0.000576 0.164182 0.657300  -0.082421 0.981252 0.174215  0.813043 0.857352
chess_set_pieces_black.003
0  -0.097198 -0.133010 0.657417  -0.517139 -0.837217 0.177861  0.841529 0.801927
0  -0.047361 -0.064386 0.717799  -0.719847 -0.667447 -0.190617  0.020826 0.412951
0  -0.076558 -0.024593 0.696678  -0.647232 -0.513834 0.563086  0.829494 0.820939
chess_set_pieces_black.003
0  -0.000580 -0.156889 0.619196  0.048260 -0.992764 -0.109953  0.247568 0.858148
0  -0.000593 -0.080622 0.697177  0.301422 -0.921867 0.243529  0.846661 0.823655
0  -0.097198 -0.133010 0.657417  -0.517139 -0.837217 0.177861  0.841529 0.801927
chess_set_pieces_black.003
0  0.096283 -0.133395 0.657842  0.638264 -0.748459 0.180081  0.868119 0.829325
0  0.046361 -0.064537 0.717732  0.429465 -0.884504 -0.182241  0.032064 0.424268
0  -0.000593 -0.080622 0.697177  0.301422 -0.921867 0.243529  0.846661 0.823655
chess_set_pieces_black.003
0  0.155849 0.050803 0.657442  0.905125 0.386511 0.177083  0.850619 0.863262
0  0.074864 0.024498 0.717892  0.971409 0.152210 -0.182199  0.046369 0.417023
0  0.075966 -0.024808 0.696910  0.829693 0.035427 0.557095  0.849040 0.841088
chess_set_pieces_black.003
0  0.046133 0.064378 0.696376  0.233423 0.793216 0.562426  0.833628 0.848778
0  -0.047405 0.064467 0.696407  -0.239243 0.792373 0.561166  0.821542 0.836558
0  -0.000607 0.078661 0.718201  -0.068398 0.958319 -0.277391  0.044209 0.401468
chess_set_pieces_black.003
0  0.151607 0.049427 0.864178  0.950183 0.311668 0.003890  0.783626 0.403093
0  0.094123 -0.130360 0.864175  0.590743 -0.806851 0.003880  0.818851 0.402017
0  0.132160 -0.043104 0.782637  0.874490 -0.281934 -0.394691  0.047902 0.438125
chess_set_pieces_black.003
0  -0.076558 -0.024593 0.696678  -0.647232 -0.513834 0.563086  0.829494 0.820939
0  -0.133411 -0.043112 0.782560  -0.871689 -0.281923 -0.400846  0.951212 0.623894
0  -0.075668 0.024330 0.718161  -0.862506 0.468029 -0.192437  0.028549 0.398841
chess_set_pieces_black.003
0  0.075966 -0.024808 0.696910  0.829693 0.035427 0.557095  0.849040 0.841088
0  0.132160 -0.043104 0.782637  0.874490 -0.281934 -0.394691  0.801289 0.419173
0  0.046361 -0.064537 0.717732  0.429465 -0.884504 -0.182241  0.032064 0.424268
chess_set_pieces_black.003
0  0.046133 0.064378 0.696376  0.233423 0.793216 0.562426  0.833628 0.848778
0  0.081029 0.112334 0.783031  0.536783 0.745942 -0.394251  0.764400 0.418051
0  0.074864 0.024498 0.717892  0.971409 0.152210 -0.182199  0.046369 0.417023
chess_set_pieces_black.003
0  -0.047405 0.064467 0.696407  -0.239243 0.792373 0.561166  0.821542 0.836558
0  -0.082143 0.112307 0.783045  -0.540268 0.740762 -0.399228  0.914547 0.625300
0  -0.000607 0.078661 0.718201  -0.068398 0.958319 -0.277391  0.044209 0.401468
chess_set_pieces_black.003
0  -0.000593 -0.080622 0.697177  0.301422 -0.921867 0.243529  0.846661 0.823655
0  -0.000557 -0.140388 0.782114  0.003778 -0.915130 -0.403141  0.988695 0.624830
0  -0.047361 -0.064386 0.717799  -0.719847 -0.667447 -0.190617  0.020826 0.412951
chess_set_pieces_black.003
0  0.075925 0.024853 1.005148  0.564423 0.207041 0.799100  0.518930 0.334024
0  -0.000561 0.080411 1.005162  0.000481 0.608893 0.793252  0.536769 0.336868
0  -0.000571 0.000001 1.025540  0.000896 0.005213 0.999986  0.525891 0.347703
chess_set_pieces_black.003
0  -0.000607 0.078661 0.718201  -0.068398 0.958319 -0.277391  0.044209 0.401468
0  -0.000577 0.159747 0.864170  -0.000272 0.999997 0.002239  0.746779 0.398679
0  0.081029 0.112334 0.783031  0.536783 0.745942 -0.394251  0.064664 0.406802
chess_set_pieces_black.003
0  0.080902 0.112154 0.945186  0.515478 0.717757 0.468088  0.768477 0.386260
0  0.131544 -0.042894 0.945358  0.837791 -0.268828 0.475224  0.800378 0.388223
0  0.151607 0.049427 0.864178  0.950183 0.311668 0.003890  0.783626 0.403093
chess_set_pieces_black.003
0  0.131544 -0.042894 0.945358  0.837791 -0.268828 0.475224  0.800378 0.388223
0  -0.000579 -0.140323 0.946210  -0.002892 -0.882197 0.470872  0.983907 0.661230
0  0.094123 -0.130360 0.864175  0.590743 -0.806851 0.003880  0.818851 0.402017
chess_set_pieces_black.003
0  -0.000577 0.159747 0.864170  -0.000272 0.999997 0.002239  0.896757 0.644641
0  -0.000561 0.080411 1.005162  0.000481 0.608893 0.793252  0.536769 0.336868
0  0.080902 0.112154 0.945186  0.515478 0.717757 0.468088  0.768477 0.386260
chess_set_pieces_black.003
0  0.074864 0.024498 0.717892  0.971409 0.152210 -0.182199  0.046369 0.417023
0  0.151607 0.049427 0.864178  0.950183 0.311668 0.003890  0.783626 0.403093
0  0.132160 -0.043104 0.782637  0.874490 -0.281934 -0.394691  0.047902 0.438125
chess_set_pieces_black.003
0  -0.047361 -0.064386 0.717799  -0.719847 -0.667447 -0.190617  0.020826 0.412951
0  -0.095209 -0.130293 0.864181  -0.590979 -0.806683 0.002525  0.968839 0.641016
0  -0.133411 -0.043112 0.782560  -0.871689 -0.281923 -0.400846  0.006956 0.396768
chess_set_pieces_black.003
0  0.151607 0.049427 0.864178  0.950183 0.311668 0.003890  0.783626 0.403093
0  -0.000577 0.159747 0.864170  -0.000272 0.999997 0.002239  0.896757 0.644641
0  0.080902 0.112154 0.945186  0.515478 0.717757 0.468088  0.768477 0.386260
chess_set_pieces_black.003
0  -0.000588 0.268541 0.003672  -0.263335 0.757051 -0.597937  0.833873 0.167498
0  -0.000000 -0.000000 0.000000  0.000005 -0.000005 -1.000000  0.919257 0.566680
0  -0.151144 0.208031 0.000000  -0.335049 0.467968 -0.817770  0.963165 0.543677
chess_set_pieces_black.003
0  0.046903 -0.065299 1.005721  0.328135 -0.461125 0.824434  0.510734 0.350096
0  0.075925 0.024853 1.005148  0.564423 0.207041 0.799100  0.518930 0.334024
0  -0.000571 0.000001 1.025540  0.000896 0.005213 0.999986  0.525891 0.347703
chess_set_pieces_black.003
0  -0.075668 0.024330 0.718161  -0.862506 0.468029 -0.192437  0.028549 0.398841
0  -0.152748 0.049435 0.864171  -0.949861 0.312657 0.003016  0.933605 0.640083
0  -0.082143 0.112307 0.783045  -0.540268 0.740762 -0.399228  0.039794 0.380506
chess_set_pieces_black.003
0  0.094123 -0.130360 0.864175  0.590743 -0.806851 0.003880  0.818851 0.402017
0  -0.095209 -0.130293 0.864181  -0.590979 -0.806683 0.002525  0.968839 0.641016
0  -0.000557 -0.140388 0.782114  0.003778 -0.915130 -0.403141  0.012383 0.432584
chess_set_pieces_black.003
0  -0.132806 -0.042933 0.945425  -0.839443 -0.264798 0.474571  0.950442 0.654873
0  -0.081967 0.112051 0.945109  -0.520445 0.712050 0.471299  0.918461 0.656921
0  -0.152748 0.049435 0.864171  -0.949861 0.312657 0.003016  0.933605 0.640083
chess_set_pieces_black.003
0  -0.048084 -0.065393 1.005855  -0.370159 -0.470454 0.801034  0.523493 0.362881
0  0.046903 -0.065299 1.005721  0.328135 -0.461125 0.824434  0.510734 0.350096
0  -0.000571 0.000001 1.025540  0.000896 0.005213 0.999986  0.525891 0.347703
chess_set_pieces_black.003
0  -0.095209 -0.130293 0.864181  -0.590979 -0.806683 0.002525  0.968839 0.641016
0  -0.152748 0.049435 0.864171  -0.949861 0.312657 0.003016  0.933605 0.640083
0  -0.133411 -0.043112 0.782560  -0.871689 -0.281923 -0.400846  0.006956 0.396768
chess_set_pieces_black.003
0  -0.077179 0.024893 1.005397  -0.537359 0.192075 0.821189  0.539528 0.354663
0  -0.048084 -0.065393 1.005855  -0.370159 -0.470454 0.801034  0.523493 0.362881
0  -0.000571 0.000001 1.025540  0.000896 0.005213 0.999986  0.525891 0.347703
chess_set_pieces_black.003
0  -0.082143 0.112307 0.783045  -0.540268 0.740762 -0.399228  0.039794 0.380506
0  -0.081967 0.112051 0.945109  -0.520445 0.712050 0.471299  0.918461 0.656921
0  -0.000577 0.159747 0.864170  -0.000272 0.999997 0.002239  0.746779 0.398679
chess_set_pieces_black.003
0  -0.000561 0.080411 1.005162  0.000481 0.608893 0.793252  0.536769 0.336868
0  -0.077179 0.024893 1.005397  -0.537359 0.192075 0.821189  0.539528 0.354663
0  -0.000571 0.000001 1.025540  0.000896 0.005213 0.999986  0.525891 0.347703
chess_set_pieces_black.003
0  -0.000579 -0.140323 0.946210  -0.002892 -0.882197 0.470872  0.833872 0.381910
0  -0.132806 -0.042933 0.945425  -0.839443 -0.264798 0.474571  0.950442 0.654873
0  -0.095209 -0.130293 0.864181  -0.590979 -0.806683 0.002525  0.968839 0.641016
chess_set_pieces_black.003
0  0.046361 -0.064537 0.717732  0.429465 -0.884504 -0.182241  0.032064 0.424268
0  0.094123 -0.130360 0.864175  0.590743 -0.806851 0.003880  0.818851 0.402017
0  -0.000557 -0.140388 0.782114  0.003778 -0.915130 -0.403141  0.012383 0.432584
chess_set_pieces_black.003
0  -0.000584 -0.098944 0.430841  -0.010693 -0.976308 0.216119  0.955144 0.224699
0  -0.000580 -0.156889 0.619196  0.048260 -0.992764 -0.109953  0.247568 0.858148
0  -0.050582 -0.068878 0.595104  -0.495384 -0.810962 -0.311346  0.931066 0.320914
chess_set_pieces_black.003
0  -0.057819 0.078868 0.430556  -0.576909 0.789673 0.208788  0.969668 0.295474
0  -0.092168 0.126085 0.620545  -0.533515 0.844324 -0.049785  0.304307 0.866763
0  -0.000535 0.083550 0.595611  -0.064167 0.751061 -0.657107  0.937364 0.283082
chess_set_pieces_black.003
0  -0.000579 -0.274912 0.057498  -0.001294 -0.992694 -0.120655  0.821384 0.009344
0  0.259917 -0.084598 0.057405  0.947298 -0.303545 -0.102407  0.836963 0.262599
0  0.152760 -0.211242 0.092068  0.557765 -0.829301 -0.034036  0.837903 0.297352
chess_set_pieces_black.003
0  -0.074057 -0.101085 0.344307  -0.475883 -0.632727 0.610895  0.976560 0.339084
0  0.072777 -0.100895 0.344310  0.462401 -0.643103 0.610413  0.975610 0.227646
0  -0.000584 -0.098944 0.430841  -0.010693 -0.976308 0.216119  0.955507 0.342133
chess_set_pieces_black.003
0  -0.094360 -0.030451 0.430773  -0.929360 -0.304096 0.209322  0.964939 0.320064
0  -0.149220 -0.048295 0.619972  -0.967842 -0.246603 -0.049685  0.279102 0.841927
0  -0.080831 0.026063 0.595090  -0.919441 0.226951 -0.321127  0.935841 0.302189
chess_set_pieces_black.003
0  -0.000568 0.123253 0.343550  -0.030758 0.845636 0.532872  0.988195 0.282752
0  -0.118484 0.038355 0.343880  -0.744028 0.258871 0.615961  0.985610 0.311306
0  -0.057819 0.078868 0.430556  -0.576909 0.789673 0.208788  0.969668 0.295474
chess_set_pieces_black.003
0  -0.118484 0.038355 0.343880  -0.744028 0.258871 0.615961  0.985610 0.311306
0  -0.074057 -0.101085 0.344307  -0.475883 -0.632727 0.610895  0.976560 0.339084
0  -0.094360 -0.030451 0.430773  -0.929360 -0.304096 0.209322  0.964939 0.320064
chess_set_pieces_black.003
0  -0.000000 -0.000000 0.000000  0.000005 -0.000005 -1.000000  0.919257 0.566680
0  0.256612 0.083389 0.003672  0.887877 0.242846 -0.390770  0.831211 0.229335
0  0.244556 -0.079461 0.000002  0.555455 -0.178075 -0.812255  0.897256 0.611103
chess_set_pieces_black.003
0  -0.000000 -0.000000 0.000000  0.000005 -0.000005 -1.000000  0.919257 0.566680
0  0.158661 -0.219319 0.003672  0.578894 -0.711038 -0.399133  0.819939 0.293233
0  0.000000 -0.257151 0.000026  -0.001861 -0.571823 -0.820374  0.870208 0.559484
chess_set_pieces_black.003
0  -0.000000 -0.000000 0.000000  0.000005 -0.000005 -1.000000  0.919257 0.566680
0  -0.158914 -0.217987 0.003672  -0.495099 -0.769950 -0.402559  0.819484 0.043226
0  -0.244555 -0.079461 0.000000  -0.557176 -0.182218 -0.810154  0.910943 0.517805
chess_set_pieces_black.003
0  -0.000000 -0.000000 0.000000  0.000005 -0.000005 -1.000000  0.919257 0.566680
0  -0.258010 0.083532 0.003672  -0.886032 0.239402 -0.397032  0.830198 0.105486
0  -0.151144 0.208031 0.000000  -0.335049 0.467968 -0.817770  0.963165 0.543677
chess_set_pieces_black.003
0  0.072777 -0.100895 0.344310  0.462401 -0.643103 0.610413  0.975610 0.227646
0  0.117232 0.038291 0.343846  0.811874 0.246723 0.529139  0.984915 0.254349
0  0.092704 -0.030257 0.430652  0.928544 -0.289578 0.232273  0.964438 0.246255
chess_set_pieces_black.003
0  0.093374 0.129329 0.316574  0.495000 0.719631 0.486935  0.673208 0.480863
0  -0.000568 0.123253 0.343550  -0.030758 0.845636 0.532872  0.988195 0.282752
0  0.056612 0.078707 0.430509  0.563251 0.798787 0.211395  0.969448 0.270489
chess_set_pieces_black.003
0  -0.000588 0.268541 0.003672  -0.263335 0.757051 -0.597937  0.833873 0.167498
0  -0.161382 0.221443 0.057452  -0.587477 0.806513 -0.066392  0.842975 0.135895
0  -0.000568 0.260421 0.092166  0.130031 0.987932 0.084154  0.851186 0.167341
chess_set_pieces_black.003
0  -0.161382 0.221443 0.057452  -0.587477 0.806513 -0.066392  0.842975 0.135895
0  -0.248118 0.080363 0.092249  -0.937759 0.347286 0.000437  0.847340 0.103565
0  -0.159662 0.218973 0.136763  -0.539903 0.768142 0.344184  0.517273 0.891890
chess_set_pieces_black.003
0  0.105615 -0.146084 0.289673  0.457562 -0.624003 0.633449  0.632538 0.514728
0  -0.000576 -0.180487 0.265789  -0.058453 -0.949872 0.307128  0.540551 0.805174
0  0.142363 -0.196783 0.216734  0.517096 -0.711684 0.475519  0.565261 0.795953
chess_set_pieces_black.003
0  -0.262395 -0.084935 0.057673  -0.944215 -0.310428 -0.109968  0.835884 0.072604
0  -0.153829 -0.211126 0.092118  -0.623164 -0.781281 -0.035592  0.836620 0.039274
0  -0.259708 -0.084133 0.136730  -0.897670 -0.274416 0.344797  0.483928 0.825174
chess_set_pieces_black.003
0  -0.159662 0.218973 0.136763  -0.539903 0.768142 0.344184  0.858898 0.134967
0  -0.248118 0.080363 0.092249  -0.937759 0.347286 0.000437  0.847340 0.103565
0  -0.259708 -0.084133 0.136730  -0.897670 -0.274416 0.344797  0.483928 0.825174
chess_set_pieces_black.003
0  -0.000579 -0.274912 0.057498  -0.001294 -0.992694 -0.120655  0.822002 0.329241
0  0.152760 -0.211242 0.092068  0.557765 -0.829301 -0.034036  0.837903 0.297352
0  -0.000585 -0.275262 0.136595  -0.016092 -0.941373 0.336982  0.535973 0.774377
chess_set_pieces_black.003
0  -0.259708 -0.084133 0.136730  -0.897670 -0.274416 0.344797  0.851809 0.070016
0  -0.153829 -0.211126 0.092118  -0.623164 -0.781281 -0.035592  0.836620 0.039274
0  -0.000585 -0.275262 0.136595  -0.016092 -0.941373 0.336982  0.535973 0.774377
chess_set_pieces_black.003
0  0.259917 -0.084598 0.057405  0.947298 -0.303545 -0.102407  0.836963 0.262599
0  0.247228 0.080390 0.092205  0.960843 0.276193 -0.022299  0.848382 0.231074
0  0.259152 -0.084319 0.136735  0.892467 -0.301527 0.335536  0.600489 0.806890
chess_set_pieces_black.003
0  -0.000585 -0.275262 0.136595  -0.016092 -0.941373 0.336982  0.836636 0.005072
0  0.152760 -0.211242 0.092068  0.557765 -0.829301 -0.034036  0.837903 0.297352
0  0.259152 -0.084319 0.136735  0.892467 -0.301527 0.335536  0.600489 0.806890
chess_set_pieces_black.003
0  0.160112 0.221185 0.057417  0.589007 0.802912 -0.091667  0.843527 0.198858
0  -0.000568 0.260421 0.092166  0.130031 0.987932 0.084154  0.851186 0.167341
0  0.158271 0.218629 0.136780  0.562492 0.753202 0.341013  0.591251 0.879464
chess_set_pieces_black.003
0  0.170333 -0.055328 0.265225  0.677850 -0.156384 0.718376  0.572658 0.821950
0  0.142363 -0.196783 0.216734  0.517096 -0.711684 0.475519  0.565261 0.795953
0  0.259152 -0.084319 0.136735  0.892467 -0.301527 0.335536  0.853456 0.265127
chess_set_pieces_black.003
0  0.259917 -0.084598 0.057405  0.947298 -0.303545 -0.102407  0.836963 0.262599
0  0.256612 0.083389 0.003672  0.887877 0.242846 -0.390770  0.831211 0.229335
0  0.160112 0.221185 0.057417  0.589007 0.802912 -0.091667  0.843527 0.198858
chess_set_pieces_black.003
0  0.158271 0.218629 0.136780  0.562492 0.753202 0.341013  0.859464 0.199444
0  -0.000568 0.260421 0.092166  0.130031 0.987932 0.084154  0.851186 0.167341
0  -0.159662 0.218973 0.136763  -0.539903 0.768142 0.344184  0.517273 0.891890
chess_set_pieces_black.003
0  -0.152801 -0.049444 0.317112  -0.810708 -0.252495 0.528203  0.681234 0.535642
0  -0.172396 0.055808 0.289756  -0.714497 0.238945 0.657571  0.699917 0.526079
0  -0.171375 -0.055284 0.265363  -0.865389 -0.389927 0.314737  0.515414 0.830574
chess_set_pieces_black.003
0  -0.172396 0.055808 0.289756  -0.714497 0.238945 0.657571  0.699917 0.526079
0  -0.105374 0.144418 0.264641  -0.510546 0.805937 0.299681  0.532074 0.862662
0  -0.230761 0.074788 0.215651  -0.842200 0.275388 0.463530  0.505617 0.855716
chess_set_pieces_black.003
0  -0.171375 -0.055284 0.265363  -0.865389 -0.389927 0.314737  0.515414 0.830574
0  -0.230761 0.074788 0.215651  -0.842200 0.275388 0.463530  0.505617 0.855716
0  -0.259708 -0.084133 0.136730  -0.897670 -0.274416 0.344797  0.851809 0.070016
chess_set_pieces_black.003
0  0.151145 0.208034 0.000001  0.337849 0.470894 -0.814933  0.954702 0.601332
0  -0.000588 0.268541 0.003672  -0.263335 0.757051 -0.597937  0.833873 0.167498
0  0.160112 0.221185 0.057417  0.589007 0.802912 -0.091667  0.843527 0.198858
chess_set_pieces_black.003
0  0.244556 -0.079461 0.000002  0.555455 -0.178075 -0.812255  0.897256 0.611103
0  0.256612 0.083389 0.003672  0.887877 0.242846 -0.390770  0.831211 0.229335
0  0.259917 -0.084598 0.057405  0.947298 -0.303545 -0.102407  0.836963 0.262599
chess_set_pieces_black.003
0  0.079281 0.025826 0.595798  0.819818 0.068671 -0.568492  0.935685 0.264219
0  0.091005 0.126048 0.620567  0.603078 0.786916 -0.130615  0.288457 0.898513
0  0.155849 0.050803 0.657442  0.905125 0.386511 0.177083  0.850619 0.863262
chess_set_pieces_black.003
0  -0.158914 -0.217987 0.003672  -0.495099 -0.769950 -0.402559  0.819484 0.043226
0  0.000000 -0.257151 0.000026  -0.001861 -0.571823 -0.820374  0.870208 0.559484
0  0.158661 -0.219319 0.003672  0.578894 -0.711038 -0.399133  0.819939 0.293233
chess_set_pieces_black.003
0  0.091005 0.126048 0.620567  0.603078 0.786916 -0.130615  0.288457 0.898513
0  -0.000535 0.083550 0.595611  -0.064167 0.751061 -0.657107  0.937364 0.283082
0  -0.092168 0.126085 0.620545  -0.533515 0.844324 -0.049785  0.304307 0.866763
chess_set_pieces_black.003
0  0.049148 -0.068599 0.595490  0.496648 -0.555644 -0.666784  0.930930 0.245670
0  0.148341 -0.048372 0.619585  0.960446 -0.255398 -0.110971  0.253404 0.893250
0  0.096283 -0.133395 0.657842  0.638264 -0.748459 0.180081  0.868119 0.829325
chess_set_pieces_black.003
0  -0.258010 0.083532 0.003672  -0.886032 0.239402 -0.397032  0.830198 0.105486
0  -0.244555 -0.079461 0.000000  -0.557176 -0.182218 -0.810154  0.910943 0.517805
0  -0.158914 -0.217987 0.003672  -0.495099 -0.769950 -0.402559  0.819484 0.043226
chess_set_pieces_black.003
0  -0.151144 0.208031 0.000000  -0.335049 0.467968 -0.817770  0.963165 0.543677
0  -0.258010 0.083532 0.003672  -0.886032 0.239402 -0.397032  0.830198 0.105486
0  -0.161382 0.221443 0.057452  -0.587477 0.806513 -0.066392  0.842975 0.135895
chess_set_pieces_black.003
0  0.259152 -0.084319 0.136735  0.892467 -0.301527 0.335536  0.853456 0.265127
0  0.247228 0.080390 0.092205  0.960843 0.276193 -0.022299  0.848382 0.231074
0  0.158271 0.218629 0.136780  0.562492 0.753202 0.341013  0.591251 0.879464
chess_set_pieces_black.003
0  0.104306 0.144475 0.264549  0.502966 0.518002 0.691881  0.567719 0.856949
0  0.229944 0.074907 0.215955  0.841331 0.275843 0.464836  0.590032 0.841911
0  0.158271 0.218629 0.136780  0.562492 0.753202 0.341013  0.859464 0.199444
chess_set_pieces_black.003
0  -0.107318 -0.146947 0.289607  -0.462703 -0.621190 0.632479  0.662250 0.545370
0  -0.171375 -0.055284 0.265363  -0.865389 -0.389927 0.314737  0.515414 0.830574
0  -0.143196 -0.196312 0.216195  -0.522517 -0.714679 0.464983  0.514165 0.803509
chess_set_pieces_black.003
0  0.092704 -0.030257 0.430652  0.928544 -0.289578 0.232273  0.964438 0.246255
0  0.079281 0.025826 0.595798  0.819818 0.068671 -0.568492  0.272218 0.887211
0  0.148341 -0.048372 0.619585  0.960446 -0.255398 -0.110971  0.253404 0.893250
chess_set_pieces_black.003
0  -0.161382 0.221443 0.057452  -0.587477 0.806513 -0.066392  0.842975 0.135895
0  -0.258010 0.083532 0.003672  -0.886032 0.239402 -0.397032  0.830198 0.105486
0  -0.262395 -0.084935 0.057673  -0.944215 -0.310428 -0.109968  0.835884 0.072604
chess_set_pieces_black.003
0  -0.262395 -0.084935 0.057673  -0.944215 -0.310428 -0.109968  0.835884 0.072604
0  -0.158914 -0.217987 0.003672  -0.495099 -0.769950 -0.402559  0.819484 0.043226
0  -0.000579 -0.274912 0.057498  -0.001294 -0.992694 -0.120655  0.822002 0.329241
chess_set_pieces_black.003
0  -0.000576 -0.180487 0.265789  -0.058453 -0.949872 0.307128  0.540551 0.805174
0  -0.143196 -0.196312 0.216195  -0.522517 -0.714679 0.464983  0.514165 0.803509
0  -0.000585 -0.275262 0.136595  -0.016092 -0.941373 0.336982  0.838214 0.333593
chess_set_pieces_black.003
0  -0.000581 -0.160364 0.317733  -0.004751 -0.846546 0.532294  0.647307 0.529979
0  -0.107318 -0.146947 0.289607  -0.462703 -0.621190 0.632479  0.662250 0.545370
0  -0.000576 -0.180487 0.265789  -0.058453 -0.949872 0.307128  0.540551 0.805174
chess_set_pieces_black.003
0  0.171336 0.055817 0.289667  0.739109 0.243450 0.628053  0.652315 0.477277
0  0.170333 -0.055328 0.265225  0.677850 -0.156384 0.718376  0.572658 0.821950
0  0.229944 0.074907 0.215955  0.841331 0.275843 0.464836  0.590032 0.841911
chess_set_pieces_black.003
0  0.104306 0.144475 0.264549  0.502966 0.518002 0.691881  0.567719 0.856949
0  -0.000562 0.242029 0.215648  0.004146 0.884869 0.465821  0.553179 0.879999
0  -0.105374 0.144418 0.264641  -0.510546 0.805937 0.299681  0.532074 0.862662
chess_set_pieces_black.003
0  0.151416 -0.049358 0.316569  0.803811 -0.266503 0.531849  0.642385 0.495966
0  0.105615 -0.146084 0.289673  0.457562 -0.624003 0.633449  0.632538 0.514728
0  0.170333 -0.055328 0.265225  0.677850 -0.156384 0.718376  0.572658 0.821950
chess_set_pieces_black.003
0  0.072777 -0.100895 0.344310  0.462401 -0.643103 0.610413  0.975610 0.227646
0  -0.000581 -0.160364 0.317733  -0.004751 -0.846546 0.532294  0.647307 0.529979
0  0.105615 -0.146084 0.289673  0.457562 -0.624003 0.633449  0.632538 0.514728
chess_set_pieces_black.003
0  0.093374 0.129329 0.316574  0.495000 0.719631 0.486935  0.673208 0.480863
0  0.171336 0.055817 0.289667  0.739109 0.243450 0.628053  0.652315 0.477277
0  0.104306 0.144475 0.264549  0.502966 0.518002 0.691881  0.567719 0.856949
chess_set_pieces_black.003
0  0.117232 0.038291 0.343846  0.811874 0.246723 0.529139  0.984915 0.254349
0  0.151416 -0.049358 0.316569  0.803811 -0.266503 0.531849  0.642385 0.495966
0  0.171336 0.055817 0.289667  0.739109 0.243450 0.628053  0.652315 0.477277
chess_set_pieces_black.003
0  -0.094411 0.129193 0.316374  -0.490919 0.692468 0.528664  0.696893 0.505398
0  -0.000583 0.180513 0.289639  0.021874 0.765339 0.643256  0.693862 0.484661
0  -0.105374 0.144418 0.264641  -0.510546 0.805937 0.299681  0.532074 0.862662
chess_set_pieces_black.003
0  -0.118484 0.038355 0.343880  -0.744028 0.258871 0.615961  0.985610 0.311306
0  -0.094411 0.129193 0.316374  -0.490919 0.692468 0.528664  0.696893 0.505398
0  -0.172396 0.055808 0.289756  -0.714497 0.238945 0.657571  0.699917 0.526079
chess_set_pieces_black.003
0  -0.074057 -0.101085 0.344307  -0.475883 -0.632727 0.610895  0.976560 0.339084
0  -0.152801 -0.049444 0.317112  -0.810708 -0.252495 0.528203  0.681234 0.535642
0  -0.107318 -0.146947 0.289607  -0.462703 -0.621190 0.632479  0.662250 0.545370
chess_set_pieces_black.003
0  0.093374 0.129329 0.316574  0.495000 0.719631 0.486935  0.673208 0.480863
0  -0.000583 0.180513 0.289639  0.021874 0.765339 0.643256  0.693862 0.484661
0  -0.094411 0.129193 0.316374  -0.490919 0.692468 0.528664  0.696893 0.505398
chess_set_pieces_black.003
0  -0.074057 -0.101085 0.344307  -0.475883 -0.632727 0.610895  0.976560 0.339084
0  -0.000584 -0.098944 0.430841  -0.010693 -0.976308 0.216119  0.955144 0.224699
0  -0.050582 -0.068878 0.595104  -0.495384 -0.810962 -0.311346  0.267295 0.857643
chess_set_pieces_black.003
0  0.117232 0.038291 0.343846  0.811874 0.246723 0.529139  0.984915 0.254349
0  0.056612 0.078707 0.430509  0.563251 0.798787 0.211395  0.969448 0.270489
0  0.079281 0.025826 0.595798  0.819818 0.068671 -0.568492  0.272218 0.887211
chess_set_pieces_black.003
0  0.056612 0.078707 0.430509  0.563251 0.798787 0.211395  0.969448 0.270489
0  -0.000535 0.083550 0.595611  -0.064167 0.751061 -0.657107  0.288514 0.878730
0  0.091005 0.126048 0.620567  0.603078 0.786916 -0.130615  0.288457 0.898513
chess_set_pieces_black.003
0  -0.118484 0.038355 0.343880  -0.744028 0.258871 0.615961  0.985610 0.311306
0  -0.094360 -0.030451 0.430773  -0.929360 -0.304096 0.209322  0.964939 0.320064
0  -0.080831 0.026063 0.595090  -0.919441 0.226951 -0.321127  0.285620 0.860540
chess_set_pieces_black.003
0  0.072777 -0.100895 0.344310  0.462401 -0.643103 0.610413  0.975610 0.227646
0  0.092704 -0.030257 0.430652  0.928544 -0.289578 0.232273  0.964438 0.246255
0  0.049148 -0.068599 0.595490  0.496648 -0.555644 -0.666784  0.259017 0.874266
chess_set_pieces_black.003
0  -0.057819 0.078868 0.430556  -0.576909 0.789673 0.208788  0.969668 0.295474
0  -0.000535 0.083550 0.595611  -0.064167 0.751061 -0.657107  0.288514 0.878730
0  0.056612 0.078707 0.430509  0.563251 0.798787 0.211395  0.969448 0.270489
chess_set_pieces_black.003
0  -0.080831 0.026063 0.595090  -0.919441 0.226951 -0.321127  0.935841 0.302189
0  -0.149220 -0.048295 0.619972  -0.967842 -0.246603 -0.049685  0.279102 0.841927
0  -0.156718 0.050704 0.657235  -0.957990 0.226746 0.175618  0.806989 0.819237
chess_set_pieces_black.003
0  -0.105374 0.144418 0.264641  -0.510546 0.805937 0.299681  0.532074 0.862662
0  -0.000562 0.242029 0.215648  0.004146 0.884869 0.465821  0.553179 0.879999
0  -0.159662 0.218973 0.136763  -0.539903 0.768142 0.344184  0.858898 0.134967
chess_set_pieces_black.003
0  -0.050582 -0.068878 0.595104  -0.495384 -0.810962 -0.311346  0.931066 0.320914
0  -0.000580 -0.156889 0.619196  0.048260 -0.992764 -0.109953  0.247568 0.858148
0  -0.097198 -0.133010 0.657417  -0.517139 -0.837217 0.177861  0.841529 0.801927
chess_set_pieces_black.003
0  0.091005 0.126048 0.620567  0.603078 0.786916 -0.130615  0.288457 0.898513
0  -0.000576 0.164182 0.657300  -0.082421 0.981252 0.174215  0.813043 0.857352
0  0.046133 0.064378 0.696376  0.233423 0.793216 0.562426  0.833628 0.848778
chess_set_pieces_black.003
0  0.148341 -0.048372 0.619585  0.960446 -0.255398 -0.110971  0.253404 0.893250
0  0.155849 0.050803 0.657442  0.905125 0.386511 0.177083  0.850619 0.863262
0  0.075966 -0.024808 0.696910  0.829693 0.035427 0.557095  0.849040 0.841088
chess_set_pieces_black.003
0  -0.149220 -0.048295 0.619972  -0.967842 -0.246603 -0.049685  0.279102 0.841927
0  -0.097198 -0.133010 0.657417  -0.517139 -0.837217 0.177861  0.841529 0.801927
0  -0.076558 -0.024593 0.696678  -0.647232 -0.513834 0.563086  0.829494 0.820939
chess_set_pieces_black.003
0  -0.156718 0.050704 0.657235  -0.957990 0.226746 0.175618  0.806989 0.819237
0  -0.076558 -0.024593 0.696678  -0.647232 -0.513834 0.563086  0.829494 0.820939
0  -0.075668 0.024330 0.718161  -0.862506 0.468029 -0.192437  0.028549 0.398841
chess_set_pieces_black.003
0  -0.092168 0.126085 0.620545  -0.533515 0.844324 -0.049785  0.304307 0.866763
0  -0.156718 0.050704 0.657235  -0.957990 0.226746 0.175618  0.806989 0.819237
0  -0.047405 0.064467 0.696407  -0.239243 0.792373 0.561166  0.821542 0.836558
chess_set_pieces_black.003
0  -0.097198 -0.133010 0.657417  -0.517139 -0.837217 0.177861  0.841529 0.801927
0  -0.000593 -0.080622 0.697177  0.301422 -0.921867 0.243529  0.846661 0.823655
0  -0.047361 -0.064386 0.717799  -0.719847 -0.667447 -0.190617  0.020826 0.412951
chess_set_pieces_black.003
0  -0.000580 -0.156889 0.619196  0.048260 -0.992764 -0.109953  0.247568 0.858148
0  0.096283 -0.133395 0.657842  0.638264 -0.748459 0.180081  0.868119 0.829325
0  -0.000593 -0.080622 0.697177  0.301422 -0.921867 0.243529  0.846661 0.823655
chess_set_pieces_black.003
0  0.096283 -0.133395 0.657842  0.638264 -0.748459 0.180081  0.868119 0.829325
0  0.075966 -0.024808 0.696910  0.829693 0.035427 0.557095  0.849040 0.841088
0  0.046361 -0.064537 0.717732  0.429465 -0.884504 -0.182241  0.032064 0.424268
chess_set_pieces_black.003
0  0.155849 0.050803 0.657442  0.905125 0.386511 0.177083  0.850619 0.863262
0  0.046133 0.064378 0.696376  0.233423 0.793216 0.562426  0.833628 0.848778
0  0.074864 0.024498 0.717892  0.971409 0.152210 -0.182199  0.046369 0.417023
chess_set_pieces_black.003
0  0.046133 0.064378 0.696376  0.233423 0.793216 0.562426  0.833628 0.848778
0  -0.000576 0.164182 0.657300  -0.082421 0.981252 0.174215  0.813043 0.857352
0  -0.047405 0.064467 0.696407  -0.239243 0.792373 0.561166  0.821542 0.836558
chess_set_pieces_black.003
0  0.151607 0.049427 0.864178  0.950183 0.311668 0.003890  0.783626 0.403093
0  0.131544 -0.042894 0.945358  0.837791 -0.268828 0.475224  0.800378 0.388223
0  0.094123 -0.130360 0.864175  0.590743 -0.806851 0.003880  0.818851 0.402017
chess_set_pieces_black.003
0  -0.076558 -0.024593 0.696678  -0.647232 -0.513834 0.563086  0.829494 0.820939
0  -0.047361 -0.064386 0.717799  -0.719847 -0.667447 -0.190617  0.020826 0.412951
0  -0.133411 -0.043112 0.782560  -0.871689 -0.281923 -0.400846  0.951212 0.623894
chess_set_pieces_black.003
0  0.075966 -0.024808 0.696910  0.829693 0.035427 0.557095  0.849040 0.841088
0  0.074864 0.024498 0.717892  0.971409 0.152210 -0.182199  0.046369 0.417023
0  0.132160 -0.043104 0.782637  0.874490 -0.281934 -0.394691  0.801289 0.419173
chess_set_pieces_black.003
0  0.046133 0.064378 0.696376  0.233423 0.793216 0.562426  0.833628 0.848778
0  -0.000607 0.078661 0.718201  -0.068398 0.958319 -0.277391  0.044209 0.401468
0  0.081029 0.112334 0.783031  0.536783 0.745942 -0.394251  0.764400 0.418051
chess_set_pieces_black.003
0  -0.047405 0.064467 0.696407  -0.239243 0.792373 0.561166  0.821542 0.836558
0  -0.075668 0.024330 0.718161  -0.862506 0.468029 -0.192437  0.028549 0.398841
0  -0.082143 0.112307 0.783045  -0.540268 0.740762 -0.399228  0.914547 0.625300
chess_set_pieces_black.003
0  -0.000593 -0.080622 0.697177  0.301422 -0.921867 0.243529  0.846661 0.823655
0  0.046361 -0.064537 0.717732  0.429465 -0.884504 -0.182241  0.032064 0.424268
0  -0.000557 -0.140388 0.782114  0.003778 -0.915130 -0.403141  0.988695 0.624830
chess_set_pieces_black.003
0  0.075925 0.024853 1.005148  0.564423 0.207041 0.799100  0.518930 0.334024
0  0.080902 0.112154 0.945186  0.515478 0.717757 0.468088  0.768477 0.386260
0  -0.000561 0.080411 1.005162  0.000481 0.608893 0.793252  0.536769 0.336868
chess_set_pieces_black.003
0  -0.000607 0.078661 0.718201  -0.068398 0.958319 -0.277391  0.044209 0.401468
0  -0.082143 0.112307 0.783045  -0.540268 0.740762 -0.399228  0.914547 0.625300
0  -0.000577 0.159747 0.864170  -0.000272 0.999997 0.002239  0.746779 0.398679
chess_set_pieces_black.003
0  0.080902 0.112154 0.945186  0.515478 0.717757 0.468088  0.768477 0.386260
0  0.075925 0.024853 1.005148  0.564423 0.207041 0.799100  0.518930 0.334024
0  0.131544 -0.042894 0.945358  0.837791 -0.268828 0.475224  0.800378 0.388223
chess_set_pieces_black.003
0  0.131544 -0.042894 0.945358  0.837791 -0.268828 0.475224  0.800378 0.388223
0  0.046903 -0.065299 1.005721  0.328135 -0.461125 0.824434  0.510734 0.350096
0  -0.000579 -0.140323 0.946210  -0.002892 -0.882197 0.470872  0.983907 0.661230
chess_set_pieces_black.003
0  -0.000577 0.159747 0.864170  -0.000272 0.999997 0.002239  0.896757 0.644641
0  -0.081967 0.112051 0.945109  -0.520445 0.712050 0.471299  0.918461 0.656921
0  -0.000561 0.080411 1.005162  0.000481 0.608893 0.793252  0.536769 0.336868
chess_set_pieces_black.003
0  0.074864 0.024498 0.717892  0.971409 0.152210 -0.182199  0.046369 0.417023
0  0.081029 0.112334 0.783031  0.536783 0.745942 -0.394251  0.764400 0.418051
0  0.151607 0.049427 0.864178  0.950183 0.311668 0.003890  0.783626 0.403093
chess_set_pieces_black.003
0  -0.047361 -0.064386 0.717799  -0.719847 -0.667447 -0.190617  0.020826 0.412951
0  -0.000557 -0.140388 0.782114  0.003778 -0.915130 -0.403141  0.838569 0.418154
0  -0.095209 -0.130293 0.864181  -0.590979 -0.806683 0.002525  0.968839 0.641016
chess_set_pieces_black.003
0  0.151607 0.049427 0.864178  0.950183 0.311668 0.003890  0.783626 0.403093
0  0.081029 0.112334 0.783031  0.536783 0.745942 -0.394251  0.064664 0.406802
0  -0.000577 0.159747 0.864170  -0.000272 0.999997 0.002239  0.896757 0.644641
chess_set_pieces_black.003
0  -0.000588 0.268541 0.003672  -0.263335 0.757051 -0.597937  0.833873 0.167498
0  0.151145 0.208034 0.000001  0.337849 0.470894 -0.814933  0.954702 0.601332
0  -0.000000 -0.000000 0.000000  0.000005 -0.000005 -1.000000  0.919257 0.566680
chess_set_pieces_black.003
0  0.046903 -0.065299 1.005721  0.328135 -0.461125 0.824434  0.510734 0.350096
0  0.131544 -0.042894 0.945358  0.837791 -0.268828 0.475224  0.800378 0.388223
0  0.075925 0.024853 1.005148  0.564423 0.207041 0.799100  0.518930 0.334024
chess_set_pieces_black.003
0  -0.075668 0.024330 0.718161  -0.862506 0.468029 -0.192437  0.028549 0.398841
0  -0.133411 -0.043112 0.782560  -0.871689 -0.281923 -0.400846  0.951212 0.623894
0  -0.152748 0.049435 0.864171  -0.949861 0.312657 0.003016  0.933605 0.640083
chess_set_pieces_black.003
0  0.094123 -0.130360 0.864175  0.590743 -0.806851 0.003880  0.818851 0.402017
0  -0.000579 -0.140323 0.946210  -0.002892 -0.882197 0.470872  0.983907 0.661230
0  -0.095209 -0.130293 0.864181  -0.590979 -0.806683 0.002525  0.968839 0.641016
chess_set_pieces_black.003
0  -0.132806 -0.042933 0.945425  -0.839443 -0.264798 0.474571  0.950442 0.654873
0  -0.077179 0.024893 1.005397  -0.537359 0.192075 0.821189  0.539528 0.354663
0  -0.081967 0.112051 0.945109  -0.520445 0.712050 0.471299  0.918461 0.656921
chess_set_pieces_black.003
0  -0.048084 -0.065393 1.005855  -0.370159 -0.470454 0.801034  0.523493 0.362881
0  -0.000579 -0.140323 0.946210  -0.002892 -0.882197 0.470872  0.833872 0.381910
0  0.046903 -0.065299 1.005721  0.328135 -0.461125 0.824434  0.510734 0.350096
chess_set_pieces_black.003
0  -0.095209 -0.130293 0.864181  -0.590979 -0.806683 0.002525  0.968839 0.641016
0  -0.132806 -0.042933 0.945425  -0.839443 -0.264798 0.474571  0.950442 0.654873
0  -0.152748 0.049435 0.864171  -0.949861 0.312657 0.003016  0.933605 0.640083
chess_set_pieces_black.003
0  -0.077179 0.024893 1.005397  -0.537359 0.192075 0.821189  0.539528 0.354663
0  -0.132806 -0.042933 0.945425  -0.839443 -0.264798 0.474571  0.950442 0.654873
0  -0.048084 -0.065393 1.005855  -0.370159 -0.470454 0.801034  0.523493 0.362881
chess_set_pieces_black.003
0  -0.082143 0.112307 0.783045  -0.540268 0.740762 -0.399228  0.039794 0.380506
0  -0.152748 0.049435 0.864171  -0.949861 0.312657 0.003016  0.933605 0.640083
0  -0.081967 0.112051 0.945109  -0.520445 0.712050 0.471299  0.918461 0.656921
chess_set_pieces_black.003
0  -0.000561 0.080411 1.005162  0.000481 0.608893 0.793252  0.536769 0.336868
0  -0.081967 0.112051 0.945109  -0.520445 0.712050 0.471299  0.918461 0.656921
0  -0.077179 0.024893 1.005397  -0.537359 0.192075 0.821189  0.539528 0.354663
chess_set_pieces_black.003
0  -0.000579 -0.140323 0.946210  -0.002892 -0.882197 0.470872  0.833872 0.381910
0  -0.048084 -0.065393 1.005855  -0.370159 -0.470454 0.801034  0.523493 0.362881
0  -0.132806 -0.042933 0.945425  -0.839443 -0.264798 0.474571  0.950442 0.654873
chess_set_pieces_black.003
0  0.046361 -0.064537 0.717732  0.429465 -0.884504 -0.182241  0.032064 0.424268
0  0.132160 -0.043104 0.782637  0.874490 -0.281934 -0.394691  0.801289 0.419173
0  0.094123 -0.130360 0.864175  0.590743 -0.806851 0.003880  0.818851 0.402017
chess_set_pieces_black.003
0  -0.000584 -0.098944 0.430841  -0.010693 -0.976308 0.216119  0.955144 0.224699
0  0.049148 -0.068599 0.595490  0.496648 -0.555644 -0.666784  0.259017 0.874266
0  -0.000580 -0.156889 0.619196  0.048260 -0.992764 -0.109953  0.247568 0.858148
chess_set_pieces_black.003
0  -0.057819 0.078868 0.430556  -0.576909 0.789673 0.208788  0.969668 0.295474
0  -0.080831 0.026063 0.595090  -0.919441 0.226951 -0.321127  0.285620 0.860540
0  -0.092168 0.126085 0.620545  -0.533515 0.844324 -0.049785  0.304307 0.866763
chess_set_pieces_black.003
0  -0.000579 -0.274912 0.057498  -0.001294 -0.992694 -0.120655  0.821384 0.009344
0  0.158661 -0.219319 0.003672  0.578894 -0.711038 -0.399133  0.819939 0.293233
0  0.259917 -0.084598 0.057405  0.947298 -0.303545 -0.102407  0.836963 0.262599
chess_set_pieces_black.003
0  -0.074057 -0.101085 0.344307  -0.475883 -0.632727 0.610895  0.976560 0.339084
0  -0.000581 -0.160364 0.317733  -0.004751 -0.846546 0.532294  0.647307 0.529979
0  0.072777 -0.100895 0.344310  0.462401 -0.643103 0.610413  0.975610 0.227646
chess_set_pieces_black.003
0  -0.094360 -0.030451 0.430773  -0.929360 -0.304096 0.209322  0.964939 0.320064
0  -0.050582 -0.068878 0.595104  -0.495384 -0.810962 -0.311346  0.267295 0.857643
0  -0.149220 -0.048295 0.619972  -0.967842 -0.246603 -0.049685  0.279102 0.841927
chess_set_pieces_black.003
0  -0.000568 0.123253 0.343550  -0.030758 0.845636 0.532872  0.988195 0.282752
0  -0.094411 0.129193 0.316374  -0.490919 0.692468 0.528664  0.696893 0.505398
0  -0.118484 0.038355 0.343880  -0.744028 0.258871 0.615961  0.985610 0.311306
chess_set_pieces_black.003
0  -0.118484 0.038355 0.343880  -0.744028 0.258871 0.615961  0.985610 0.311306
0  -0.152801 -0.049444 0.317112  -0.810708 -0.252495 0.528203  0.681234 0.535642
0  -0.074057 -0.101085 0.344307  -0.475883 -0.632727 0.610895  0.976560 0.339084
chess_set_pieces_black.003
0  -0.000000 -0.000000 0.000000  0.000005 -0.000005 -1.000000  0.919257 0.566680
0  0.151145 0.208034 0.000001  0.337849 0.470894 -0.814933  0.954702 0.601332
0  0.256612 0.083389 0.003672  0.887877 0.242846 -0.390770  0.831211 0.229335
chess_set_pieces_black.003
0  -0.000000 -0.000000 0.000000  0.000005 -0.000005 -1.000000  0.919257 0.566680
0  0.244556 -0.079461 0.000002  0.555455 -0.178075 -0.812255  0.897256 0.611103
0  0.158661 -0.219319 0.003672  0.578894 -0.711038 -0.399133  0.819939 0.293233
chess_set_pieces_black.003
0  -0.000000 -0.000000 0.000000  0.000005 -0.000005 -1.000000  0.919257 0.566680
0  0.000000 -0.257151 0.000026  -0.001861 -0.571823 -0.820374  0.870208 0.559484
0  -0.158914 -0.217987 0.003672  -0.495099 -0.769950 -0.402559  0.819484 0.043226
chess_set_pieces_black.003
0  -0.000000 -0.000000 0.000000  0.000005 -0.000005 -1.000000  0.919257 0.566680
0  -0.244555 -0.079461 0.000000  -0.557176 -0.182218 -0.810154  0.910943 0.517805
0  -0.258010 0.083532 0.003672  -0.886032 0.239402 -0.397032  0.830198 0.105486
chess_set_pieces_black.003
0  0.072777 -0.100895 0.344310  0.462401 -0.643103 0.610413  0.975610 0.227646
0  0.151416 -0.049358 0.316569  0.803811 -0.266503 0.531849  0.642385 0.495966
0  0.117232 0.038291 0.343846  0.811874 0.246723 0.529139  0.984915 0.254349
end
